PathFileType	4	(X/Y/Z)	C:/Users/beibeiliu/ov580/test_trc/User2\sequence.41_training_dense_right.trc
DataRate	CameraRate	NumFrames	NumMarkers	Units	OrigDataRate	OrigDataStartFrame	OrigNumFrames
120	120	20	19	mm	120	29	170
Frame#	Time	ThumbCMC			ThumbMCP			ThumbIP			ThumbTip			IndexMCP			IndexPIP			IndexTip			MiddleMCP			MiddlePIP			MiddleTip			RingMCP			RingPIP			RingTip			PinkyMCP			PinkyPIP			PinkyTip			BackHand1			BackHand2			BackHand3	
		X0	Y0	Z0	X1	Y1	Z1	X2	Y2	Z2	X3	Y3	Z3	X4	Y4	Z4	X5	Y5	Z5	X6	Y6	Z6	X7	Y7	Z7	X8	Y8	Z8	X9	Y9	Z9	X10	Y10	Z10	X11	Y11	Z11	X12	Y12	Z12	X13	Y13	Z13	X14	Y14	Z14	X15	Y15	Z15	X16	Y16	Z16	X17	Y17	Z17	X18	Y18	Z18	
28	0.233333	75.2538	69.8021	16.5124	59.7654	91.7678	0.70068	43.0651	109.566	-18.6099	27.5833	124.532	-33.1711	65.8209	74.4535	-70.3837	51.5666	76.3118	-91.9819	26.9781	72.9798	-116.151	72.8167	48.2004	-82.2918	55.689	46.6921	-107.552	33.2214	41.3482	-134.458	71.3308	18.8877	-81.0615	55.1624	13.0775	-101.314	32.8078	9.01704	-119.672	69.6452	-9.72846	-64.1919	49.9837	-19.2699	-79.6795	32.5858	-28.0783	-93.1743	104.461	22.6361	-26.5263	118.043	16.9377	5.29182	101.13	55.6678	-6.91077	
29	0.241667	79.7148	67.8123	17.1481	64.9753	90.0441	0.752469	50.0647	112.585	-24.9058	37.1976	121.451	-44.8758	66.8892	68.3812	-72.7382	51.151	70.7385	-92.9932	25.2849	65.6875	-109.814	71.8279	45.4242	-83.7268	48.9571	42.8067	-107.87	18.6502	41.5979	-126.448	68.3574	16.5602	-77.572	44.165	13.3874	-97.7747	14.829	11.7662	-108.544	65.268	-8.25143	-61.5473	38.7755	-16.3749	-74.8804	16.8193	-20.5675	-82.6045	104.077	19.4996	-28.5918	119.01	13.5187	3.88258	103.863	53.5833	-3.63728	
30	0.25	83.2827	69.5128	14.2428	71.1137	90.2686	-4.22972	56.7549	106.581	-28.7807	44.2972	114.618	-48.1272	67.5817	69.1578	-69.8936	45.9983	63.3074	-92.0474	17.3814	58.238	-99.7218	67.5822	43.5923	-80.6798	37.8553	41.2191	-101.832	2.65954	35.394	-103.948	61.4228	15.5952	-76.7739	33.4556	15.3314	-88.7613	-1.89899	11.824	-82.7077	59.2994	-5.00629	-60.1722	29.7239	-5.70229	-67.9672	4.31409	-4.04763	-66.0302	103.267	15.4534	-27.3126	116.46	12.8972	2.40151	107.189	50.2756	-5.19522	
31	0.258333	85.7411	68.1697	13.7388	72.8555	88.9099	-10.2113	59.3602	102.253	-35.4777	45.523	108.694	-58.5888	68.9005	61.6027	-69.4687	39.932	60.2244	-89.3006	8.33504	51.6146	-80.5818	62.4122	40.3637	-80.5798	28.1572	36.7141	-90.8563	-7.55398	35.6105	-71.4992	54.4523	17.0654	-73.8248	23.1763	15.2216	-76.6722	-1.82403	21.276	-56.9142	55.3059	-5.19641	-57.8671	24.5457	0.0269086	-59.5446	1.48733	10.7993	-43.0289	101.548	15.1312	-27.9056	118.581	12.8303	4.03697	108.224	45.1976	-7.81648	
32	0.266667	86.557	71.2365	14.646	71.0471	89.8067	-13.0308	56.0872	100.907	-42.0989	41.5633	98.098	-64.5639	67.451	62.0705	-70.1105	31.8343	61.9238	-82.3912	10.8006	56.6356	-59.4845	59.682	40.9858	-75.4708	20.1208	41.0031	-77.2463	0.96688	35.1542	-42.5992	51.1817	18.0148	-70.1898	19.158	20.3813	-65.4567	8.08268	23.9968	-29.8113	53.173	-0.860434	-56.588	19.4928	2.31833	-49.9821	12.6581	17.5957	-19.7256	102.572	11.7097	-28.5831	115.044	7.5724	1.34378	108.148	45.1423	-12.0662	
33	0.275	83.8474	70.7647	10.7346	65.7215	89.6031	-11.1745	46.9245	94.8965	-41.7145	33.0723	89.8238	-67.6277	59.6455	65.8198	-73.0001	27.9366	61.9185	-74.1581	19.0336	56.347	-39.9062	54.6508	38.1711	-72.1631	16.9691	40.4046	-63.839	15.6969	41.2259	-24.5749	42.1579	18.5327	-66.1969	16.438	21.6113	-50.0847	24.8707	25.5485	-16.4838	45.6742	1.55557	-54.8622	18.6747	8.75717	-37.1378	28.0931	19.0735	-3.67756	102.397	13.7935	-30.9349	114.164	11.5216	-1.4012	108.15	49.4638	-9.2822	
34	0.283333	84.4223	70.2515	6.14857	66.3717	90.09	-17.2821	48.5682	90.8293	-42.7359	32.7318	87.9456	-69.5109	58.0975	59.8383	-69.9975	23.9268	63.2982	-62.5555	28.7108	61.3621	-29.4585	48.2285	43.7567	-70.7689	18.3375	42.7345	-53.1256	33.977	44.5877	-13.7152	40.9921	22.2933	-60.5652	19.6023	24.9163	-39.7664	43.3638	33.1094	-8.89306	42.4593	4.40088	-49.5179	23.0951	13.2414	-24.3128	43.4596	22.4935	-0.846568	98.9597	10.9223	-29.7295	112.868	10.1887	1.82611	107.858	47.591	-13.72	
35	0.291667	89.1988	69.5905	8.92103	74.3692	90.4368	-20.2297	56.9238	95.5296	-48.2561	43.1758	85.8625	-69.2458	57.0635	65.2126	-70.9758	29.6616	61.0358	-59.512	37.805	63.6333	-24.7463	48.2172	42.1821	-68.9175	21.5859	43.8518	-45.1201	43.7034	43.1468	-10.981	42.7377	20.3221	-57.1048	24.7531	31.0404	-30.8791	54.5288	30.7655	-7.06493	41.1512	7.72951	-47.0948	28.7742	16.6102	-21.8987	54.1363	20.8823	0.217568	102.297	13.6134	-31.4664	114.897	8.35032	3.73306	111.658	43.4651	-13.4276	
36	0.3	96.0089	70.0519	4.21825	86.2148	90.419	-18.0995	71.7318	95.2153	-54.9635	57.4423	88.504	-74.2642	62.288	62.0378	-70.0133	33.3328	65.4101	-56.1502	46.8036	59.1123	-23.9793	53.6474	45.7051	-68.1238	27.9675	45.6181	-45.0216	52.2808	48.831	-10.3739	46.7082	23.4936	-56.8754	30.4739	31.4293	-28.7747	60.7953	32.4845	-9.53954	46.6417	5.12998	-46.5782	33.2661	18.3887	-14.5444	56.8823	22.5143	0.621782	102.717	11.9817	-30.7934	116.14	9.24259	-0.971501	115.843	42.6899	-10.7998	
37	0.308333	100.574	68.0501	6.5417	96.8234	91.9876	-20.0291	83.8554	97.6231	-57.583	68.6421	88.1535	-77.5167	67.0636	61.644	-68.9875	37.9663	62.0168	-56.2614	53.2263	63.0869	-21.9142	56.7896	41.9323	-69.0487	31.0512	44.0183	-44.0462	57.3367	45.0069	-11.9805	48.7389	22.5574	-58.3288	33.2459	32.4847	-29.0969	61.9637	34.1717	-10.6719	45.723	5.54955	-46.067	35.3859	19.1677	-15.7658	63.3482	22.0712	0.159384	105.987	7.89851	-30.6421	117.47	3.34955	-1.35217	117.526	41.0712	-17.0556	
38	0.316667	104.872	68.5816	4.68162	101.433	89.965	-22.6363	89.4766	96.4638	-58.855	73.5177	90.7232	-77.9848	65.029	61.0513	-71.4576	39.0635	64.9666	-54.8229	57.5371	61.3885	-23.7057	58.3307	38.1005	-69.2349	32.7855	47.9961	-46.0276	58.8055	49.7191	-12.7915	46.6861	25.4274	-57.7462	31.7153	31.4723	-32.8823	62.9017	34.9425	-11.6019	48.083	5.97232	-47.1154	33.7083	17.7022	-19.9447	59.9518	22.1588	-1.57535	104.353	7.40123	-30.6432	117.721	5.81806	-1.52654	120.479	38.5318	-17.9395	
39	0.325	105.531	72.8069	2.44179	98.3221	87.4965	-28.936	84.2402	90.3848	-59.7408	68.8201	87.8988	-78.7251	70.2634	62.1836	-71.3051	38.3901	66.8578	-59.1111	54.3068	64.3092	-24.8274	56.2541	42.3363	-70.5137	31.6193	47.4334	-42.8817	59.6549	47.2857	-13.6075	44.0635	22.5487	-57.0506	32.3153	33.7709	-31.3984	64.438	34.3691	-12.2253	47.417	9.24931	-47.1978	34.0133	20.5099	-17.6124	62.7732	21.0115	-0.468417	103.263	4.61697	-32.0259	116.846	2.99702	1.48609	120.711	40.3012	-19.0957	
40	0.333333	101.769	73.3616	-0.716542	89.3911	88.9015	-26.0412	72.7161	92.2647	-57.5407	58.1805	85.4283	-77.8386	66.3142	62.352	-72.8076	35.5587	62.1366	-59.3818	53.5762	61.4694	-24.658	54.7465	37.4241	-69.224	29.7161	46.4263	-46.2399	56.4483	47.9416	-13.4695	46.4929	19.0457	-56.1952	30.5657	31.6996	-30.9962	60.1379	32.081	-10.1087	44.3091	4.05407	-45.182	32.9499	17.8618	-15.4877	60.3929	19.4676	1.50639	103.193	8.91194	-32.8408	119.196	5.58739	-0.803417	116.967	39.7287	-17.8608	
41	0.341667	97.0537	72.5481	1.65806	81.7094	91.9517	-21.6513	63.4015	90.1842	-54.1993	46.818	87.7825	-76.047	63.2194	64.6311	-72.1759	32.4792	63.0171	-58.1582	47.0118	63.3796	-25.8227	50.4296	41.0012	-69.1375	27.0265	42.9335	-42.9438	56.2709	45.1666	-13.0672	42.0275	20.5376	-55.4348	28.1072	31.1518	-32.092	61.9607	31.3407	-10.5957	45.8402	2.70297	-44.936	34.1628	20.5133	-15.3358	58.1861	19.6838	1.69374	104.563	8.89148	-31.3856	116.053	7.94649	-2.55428	116.642	45.3177	-16.5408	
42	0.35	95.5385	71.7484	1.33155	77.6058	90.2901	-19.2353	57.501	93.0694	-52.3117	41.0637	91.0939	-73.6428	60.0469	61.9037	-72.0541	33.4334	62.1503	-60.1743	46.9501	61.5619	-26.8117	50.1308	39.1261	-69.1313	26.1821	42.6207	-46.2608	52.8782	46.5959	-13.0935	45.051	24.3285	-56.3931	28.5917	31.3576	-30.4182	57.5945	35.974	-11.1044	45.0211	3.20272	-45.4555	30.4823	17.0468	-17.7969	58.766	21.5267	1.99805	104.588	10.2924	-31.6313	116.814	7.18987	-3.21135	115.197	45.6944	-19.2926	
43	0.358333	95.2199	75.0209	3.08348	74.9252	88.988	-17.8591	54.063	93.2076	-46.5078	37.732	90.5567	-65.5099	65.7596	62.4725	-70.3588	32.4151	66.1898	-56.5109	46.7181	63.7886	-25.9759	56.6346	41.6958	-68.2028	27.4456	48.5166	-46.2515	50.4943	49.1224	-14.3486	46.9617	23.8222	-58.1857	30.1554	33.0935	-29.8581	58.3315	31.7413	-10.2903	44.1128	5.13778	-46.6961	32.7665	20.3045	-19.1215	58.4046	21.595	0.612067	105.213	11.8179	-31.2563	118.881	8.33767	-3.18335	116.511	42.4664	-14.9921	
44	0.366667	92.2198	71.9437	1.57752	71.7834	89.6876	-14.7725	48.8449	92.8451	-42.3084	30.9641	89.3537	-62.3951	61.4807	67.2441	-71.5029	33.3585	68.2593	-58.3664	48.4685	60.0931	-24.4613	54.1672	45.2213	-68.5745	27.4168	45.8674	-44.9523	52.2903	48.5805	-13.6183	43.4614	25.7042	-56.436	30.0464	33.9504	-29.09	59.0827	32.5911	-10.5739	47.5732	10.1891	-46.0869	33.41	19.6003	-16.9945	59.3004	24.4924	-1.40523	105.164	12.566	-35.444	118.253	8.63128	0.995087	117.058	46.1963	-13.8363	
45	0.375	91.8264	73.0242	3.08025	68.494	91.4909	-16.1758	44.5301	95.3612	-42.9229	25.9257	88.5151	-62.7515	65.316	65.7996	-69.3467	33.4744	69.805	-56.9599	48.6417	63.5967	-22.7828	55.2224	47.2277	-68.9447	27.0839	50.2527	-47.9533	51.4099	47.9197	-13.3568	48.2686	27.4582	-57.1693	29.9869	34.2865	-29.7299	59.2996	34.8993	-9.53257	43.961	8.66435	-46.353	33.0941	21.0731	-20.7597	58.0502	20.7972	3.11948	104.649	15.7429	-32.4216	119.962	6.5488	0.60088	116.839	49.7621	-16.4532	
46	0.383333	92.4697	76.9241	3.88006	68.8633	91.6956	-14.0546	41.6144	95.0701	-42.6726	26.0691	85.3537	-56.4033	63.8546	70.2313	-68.1223	33.1202	67.6453	-56.729	48.6573	62.1964	-21.5276	54.9827	46.0013	-67.9805	26.4343	51.0361	-45.4933	49.4341	49.2728	-12.8694	47.3013	28.3903	-57.3245	29.079	35.9395	-30.0166	58.8994	36.4507	-9.64543	41.6306	8.42515	-45.7175	32.6159	20.8371	-14.0905	58.2551	25.5997	0.272542	101.195	11.3044	-35.2797	118.215	7.30618	-3.84111	116.548	45.4244	-16.3881	
47	0.391667	94.1774	72.9818	6.82383	68.8694	95.9144	-12.6588	42.9523	98.9027	-37.6143	27.1938	82.1545	-55.1353	63.4923	70.4964	-66.9619	30.9454	66.2076	-54.97	43.1467	67.5646	-21.4461	51.1904	43.7479	-67.552	24.4539	50.7759	-42.2678	48.6769	53.6484	-10.3794	45.4795	26.7684	-56.5364	26.9357	33.4498	-27.769	55.3423	37.1037	-8.9717	42.3523	9.76919	-44.4222	31.9836	24.7915	-17.8479	56.291	28.1533	1.22285	103.125	10.7608	-32.6103	119.398	9.64682	0.196427	117.269	46.1619	-12.8535	
